<svg viewBox="0 0 20 20" version="1.1" xmlns="http://www.w3.org/2000/svg" xmlns:xlink="http://www.w3.org/1999/xlink">
   <style>
   svg .face {
      fill: #ff0;
      stroke: #000;
      stroke-width: .5;
   }

   svg .eyes {
      fill: #000;
      transform-origin: center;
      transition: transform .1s linear;
   }

   svg .mouth {
      fill: none;
      stroke:#000;
      stroke-width: .5;
   }
   .guide {
      transform: rotate(-90deg);
      transform-origin: 6px 7.5px;
   }
   </style>
   <circle class="face" cx="10" cy="10" r="9.75"/>
   <g class="eyes">
      <path id="leftEye" class="eye" d="m6 6
         c .8 0 1.5 .7 1.5 1.5
         c 0 .8 -.7 1.5 -1.5 1.5
         c -.8 0 -1.5 -.7 -1.5 -1.5
         c 0 -0.8 0.7 -1.5 1.5 -1.5">
         <animate attributeName="d"
            to="m6 7
         c .8 0 1.5 .5 1.5 1
         c 0 .3 -.3 -.7 -1.5 -.7
         c -1.2 0 -1.5 1 -1.5 .7
         c 0 -.5 .7 -1 1.5 -1"
            dur=".1s" fill="freeze" begin="leftEye.click"/>
      </path>
      <path id="rightEye" class="eye" d="m14 6
         c .8 0 1.5 .7 1.5 1.5
         c 0 .8 -.7 1.5 -1.5 1.5
         c -.8 0 -1.5 -.7 -1.5 -1.5
         c 0 -0.8 0.7 -1.5 1.5 -1.5">
         <animate attributeName="d"
            to="m14 7
         c .8 0 1.5 .5 1.5 1
         c 0 .3 -.3 -.7 -1.5 -.7
         c -1.2 0 -1.5 1 -1.5 .7
         c 0 -.5 .7 -1 1.5 -1"
            dur=".1s" fill="freeze" begin="rightEye.click" />
      </path>
   </g>
   <path class="mouth" d="m6 13 q 1 3 4 3 q 3 0 4 -3"/>
</svg>