<?xml version="1.0" encoding="UTF-8" standalone="no"?>
<svg xmlns="http://www.w3.org/2000/svg" viewBox="0 0 10.151 9.732">
   <style>
      path {
         fill: #000;
         stroke: none;
      }
   </style>
   <path d="m 8.3514143,0.87604732 c -0.301231,-0.14466 -0.469576,-0.103008 -0.7921396,0.09053 C 7.2763677,1.1363218 1.8420287,3.606967 0.43001865,4.440673 0.1512187,4.605287 0.03263514,4.762579 0.03394884,5.074384 0.02287404,5.610621 0.24473726,5.749898 0.91661861,6.45497 1.7879721,7.360272 2.5660645,8.057209 3.1119769,8.412687 3.5985768,8.729542 4.1304421,8.944552 4.4246653,8.70691 4.9298454,8.298881 5.822707,7.448636 6.6652886,6.602082 7.5138905,5.749478 9.6406652,3.408193 9.9462047,3.068704 10.261074,2.71885 10.116754,2.415059 9.9356934,2.188733 9.6694919,1.855982 8.7202737,1.0498542 8.3514143,0.87604732 Z" />
   <path style="fill:#eeeeee" d="M 8.3943831,0.95026632 C 8.2058717,0.82897232 8.0176995,0.77411832 7.7748049,0.89976632 7.5258468,1.0285532 7.0187921,1.2834293 4.8460665,2.324526 2.6733408,3.365623 1.2047553,4.023502 0.32763664,4.600704 0.14927644,4.718076 -0.04526512,5.221493 0.22632559,5.594931 0.4979163,5.968367 1.3013722,6.771824 1.8785024,7.292372 2.4556327,7.812921 3.2704048,8.51453 3.7004234,8.616377 4.130442,8.718223 4.2931862,8.78146 4.5717769,8.480581 4.8546839,8.175043 5.74867,7.428167 7.3442654,5.753358 8.9398608,4.078549 9.7803668,3.106556 9.9501109,2.948128 10.119856,2.7897 10.116753,2.550851 9.9696419,2.347158 9.8225306,2.143468 9.5396236,1.89451 9.2454004,1.6229201 8.9511771,1.3513301 8.5980761,1.079859 8.3943831,0.95026632 Z" />
   <path d="m 8.8056891,1.4345428 c 0,0 -0.2541165,-0.2430672 -0.4419417,-0.3314558 C 8.1759222,1.0146971 8.0441306,0.98104632 7.5682523,1.202527 6.6898931,1.6113215 5.2856792,2.3938394 4.0769126,2.9813404 c -1.9776894,0.961224 -3.54658251,1.867205 -3.54658251,1.867205 0,0 3.39190291,-1.684904 5.33092221,-2.690321 1.5440357,-0.80061 1.8181057,-0.8840946 2.0550291,-0.9943674 0.162585,-0.07567 0.2872621,-0.06077 0.4419417,0.03867 0.1250354,0.08038 0.3148835,0.2596401 0.3148835,0.2596401 z" />
   <path d="m 0.68500969,5.268385 c 0,-0.0051 0.52109421,0.4742401 1.25400971,1.2098163 0.5610755,0.5631123 1.0606601,0.9556999 1.2705825,1.1324749 0.2099223,0.176777 0.5027296,0.196239 0.7899708,-0.06077 C 4.3144561,7.2681722 5.08233,6.6439287 6.1927087,5.5666957 7.1347399,4.6527857 9.3139221,2.406813 9.3139221,2.406813 c 0,0 -0.8034025,0.7917607 -2.9499611,2.889194 C 4.8773015,6.7486433 4.1376795,7.2957932 3.9388057,7.4504732 3.7399319,7.6051522 3.4965275,7.7935522 3.1377863,7.4228512 2.8063299,7.0803462 2.255103,6.6770225 1.8561553,6.2185613 1.5360517,5.8507057 0.75590093,5.180921 0.77892234,5.1579 Z" />
   <path d="m 8.7725435,1.986969 c 0,0 -1.0606602,0.939126 -3.2151262,2.441728 -1.128747,0.787228 -2.7897571,2.1489413 -2.7897571,2.1489413 l 0.1712524,0.04972 c 0,0 1.7456698,-1.5191753 3.3808543,-2.6461263 C 7.9549513,2.854279 8.7725435,1.986969 8.7725435,1.986969 Z" />
   <path d="m 8.4410872,1.5395034 c 0,0 -1.7485851,1.1493846 -3.2040776,1.9942616 -2.0936989,1.215339 -3.4802912,2.032931 -3.4802912,2.032931 0,0 1.9666407,-1.038562 3.7123106,-2.077126 C 7.2146989,2.451007 8.4521357,1.699706 8.4521357,1.699706 Z" />
   <path d="M 5.4093644,5.930818 4.7507309,5.250615 4.8532888,5.154255 5.5909952,5.773183 Z" />
   <path d="M 6.2943219,5.102386 5.7350776,4.496287 5.8289906,4.374753 6.415186,4.996477 Z" />
   <path d="M 6.928713,4.510016 6.4446352,3.959714 6.5463603,3.888564 7.0491841,4.409071 Z" />
   <path d="M 7.5773886,3.920767 7.1648488,3.447413 7.2369418,3.394853 7.6565089,3.833166 Z" />
   <path d="M 8.1316638,3.383064 7.8169429,2.984206 7.8996919,2.885166 8.2576593,3.279563 Z" />
   <path d="M 8.8475785,2.714858 8.534083,2.339715 8.610753,2.241345 8.9528177,2.617713 Z" />
   <path d="M 4.3054215,6.948555 3.5969069,6.126502 3.7028158,6.031642 4.4506706,6.831991 Z" />
   <path d="M 4.5474433,5.080771 3.9549384,4.429529 4.0572187,4.349619 4.6664114,4.990089 Z" />
   <path d="M 5.5817384,4.351545 5.0497229,3.787629 5.1576425,3.731439 5.698696,4.265167 Z" />
   <path d="m 6.3237713,3.848674 -0.454168,-0.557004 0.09916,-0.05781 0.45997,0.542997 z" />
   <path d="m 7.0187668,3.326549 -0.4014912,-0.472522 0.08543,-0.05323 0.4098589,0.44423 z" />
   <path d="M 7.6385957,2.854812 7.3362639,2.47403 l 0.098374,-0.105909 0.3391063,0.3723 z" />
   <path d="M 8.4070248,2.201608 8.1731576,1.92685 8.2765007,1.86419 8.4911146,2.113338 Z" />
   <path d="m 3.4185122,5.957768 -0.7280459,-0.83271 0.095808,-0.06618 0.7436709,0.81089 z" />
   <path d="M 3.7864144,4.264194 3.2571947,3.560438 3.3282247,3.501958 3.9095662,4.190482 Z" />
   <path d="M 4.8852202,3.662974 4.3976288,3.046936 4.4694448,2.980646 4.9973241,3.588201 Z" />
   <path d="M 5.7360731,3.1813 5.2041726,2.582898 5.3091338,2.527658 5.8295932,3.134543 Z" />
   <path d="M 6.4977523,2.723178 5.9444249,2.18515 6.0935802,2.10229 6.5974668,2.649748 Z" />
   <path d="M 7.1597648,2.245917 6.7722805,1.777694 6.8550295,1.715704 7.2868231,2.179628 Z" />
   <path d="M 7.9833215,1.740087 7.6242438,1.3920599 7.7402535,1.3257702 8.1214283,1.657226 Z" />
   <path d="M 2.5756821,4.997952 1.9791083,4.227905 2.1227394,4.172665 2.6877855,4.934622 Z" />
</svg>
