<?xml version="1.0" encoding="UTF-8" standalone="no"?>
<svg xmlns="http://www.w3.org/2000/svg" viewBox="0 0 10.151 9.732">
   <g transform="matrix(0.09668001,0,0,0.09668001,0.0115802,-18.988353)">
      <path style="fill:#000000"
         d="m 24.700745,196.70232 c -15.875,0 -24.56845334,12.47321 -24.56845334,25.13541 0,12.66221 20.22172634,36.4747 30.23809734,48.38095 10.016368,11.90625 28.537199,26.45833 46.491069,26.64732 17.95387,0.18899 29.349062,-15.33728 27.592262,-38.1756 -1.32292,-17.19791 -15.931982,-34.44178 -30.427082,-45.16814 -9.4494,-6.99256 -23.19048,-16.44197 -49.325893,-16.81994 z" />
      <path style="fill:#eeeeee"
         d="m 20.599702,198.15923 c -18.1428568,4.7247 -19.1885071,17.94954 -18.8988092,24.75744 0.3779762,8.88243 17.7648812,33.45089 31.1830342,47.625 13.418156,14.1741 28.91518,24.56844 42.900298,24.56844 13.985118,0 23.245535,-10.01636 25.891365,-21.35566 2.64584,-11.33927 2.07887,-23.81249 -8.126484,-38.93153 C 83.343749,219.70387 68.224701,209.87649 58.208332,205.34077 48.191964,200.80506 33.82887,196.45833 20.599702,198.15923 Z" />
      <path style="fill:#000000"
         d="m 15.541605,200.41395 c 0,0 7.546583,2.56856 14.158709,7.22822 9.532604,6.71776 14.949487,14.095 14.949487,14.095 l -1.020537,0.37798 c 0,0 -5.076968,-7.17875 -14.463489,-13.89651 -7.076163,-5.06428 -13.62417,-7.80469 -13.62417,-7.80469 z" />
      <path style="fill:#000000"
         d="m 15.166295,247.62685 c 0,0 7.445611,-11.9541 35.875718,-29.30686 14.573672,-8.89527 19.734027,-4.94722 19.734027,-4.94722 0,0 -6.061235,-2.42868 -19.182291,5.65818 -26.565741,16.37317 -36.143972,29.04475 -36.143972,29.04475 z" />
   </g>
</svg>
